<svg xmlns="http://www.w3.org/2000/svg" viewBox="0 0 1024 1024"><path fill="#000000" d="M376.8 386.368h-77.408L259.248 800h507.12L726.24 386.368h-77.408v50.08a16 16 0 0 1-16 16h-16a16 16 0 0 1-16-16v-50.08h-176v50.08a16 16 0 0 1-16 16h-16a16 16 0 0 1-16-16v-50.08z m0-48v-1.824c0-79.456 60.48-144.544 136-144.544 75.52 0 136 65.088 136 144.544v1.824h106.48a16 16 0 0 1 15.92 14.464l46.352 477.616A16 16 0 0 1 801.632 848H224a16 16 0 0 1-15.92-17.552l46.352-477.616a16 16 0 0 1 15.92-14.464h106.464z m224 0v-1.824c0-53.696-39.792-96.544-88-96.544-48.176 0-88 42.848-88 96.544v1.824h176z"/></svg>
