<svg xmlns="http://www.w3.org/2000/svg" viewBox="0 0 423.52000 1289.52000"><g opacity="0.2"><path d="M202.75456,48.76000 L188.76067,49.76212 L183.76200,52.75655 L170.75830,54.76079 L167.76387,58.75734 L168.75406,61.76370 L163.75539,62.76582 L155.76229,74.75547 L157.75460,76.75971 L153.75805,88.76129 L153.75805,102.75518 L151.76574,103.75730 L155.76229,137.75780 L152.75593,148.75726 L153.75805,154.75805 L148.75938,159.75672 L146.75514,174.76466 L155.76229,193.75722 L156.76441,208.76516 L154.76017,213.76383 L151.76574,301.75951 L145.76495,356.75681 L134.76549,422.76550 L125.75834,461.76467 L71.76316,649.75761 L57.75734,709.76551 L48.76212,788.75404 L47.76000,883.76456 L49.76424,1197.76216 L65.76237,1220.76320 L79.75626,1227.75418 L132.76125,1237.76345 L196.76570,1240.75788 L221.75905,1240.75788 L311.75897,1234.75709 L334.76001,1229.75842 L353.76450,1221.76532 L362.75972,1211.75605 L367.75839,1201.75871 L371.75494,1184.75846 L372.75706,1149.75584 L374.76130,1148.76565 L371.75494,808.76065 L364.76396,724.76152 L348.76583,651.76185 L294.75872,468.75565 L272.75980,363.75972 L266.75901,315.76533 L261.76034,200.76013 L274.76404,180.76545 L279.76271,166.75963 L279.76271,158.75460 L272.75980,139.76204 L268.76325,69.75680 L265.75689,63.75601 L252.76512,53.75867 L238.75930,49.76212 L223.76329,48.76000 Z" fill="black" stroke="black" stroke-width="47.32338" stroke-linejoin="round"/></g></svg>